# xmcd
#
# Track frame offsets:
#	150
#	11835
#	20681
#	32008
#	48084
#	57099
#	70177
#	79174
#	95810
#	107427
#	119053
#	130674
#	142101
#	155465
#	166300
#
# Disc length: 2403 seconds
#
# Revision: 1
# Processed by: cddbd v1.5.2PL0 Copyright (c) Steve Scherf et al.
# Submitted via: audiograbber 1.83.01
#
DISCID=c909610f
DTITLE=Johnny Sanders - The American Musik Show
DYEAR=2005
DGENRE=Johnny Sanders
TTITLE0=Mean Woman Blues
TTITLE1=Teddy Bear/Don´t be crue
TTITLE2=Ain`t that a kick
TTITLE3=Always on my Mind
TTITLE4=Great Balls of Fire
TTITLE5=In Dreams
TTITLE6=Johnny B Good
TTITLE7=Let it be me
TTITLE8=Only the Lonely
TTITLE9=Sweet Caroline
TTITLE10=Teenger in Love
TTITLE11=The Wonder of you
TTITLE12=Whole lotta shaking
TTITLE13=Yesterday
TTITLE14=Pretty Woman (Remix 2005)
EXTD=Elvis Roy and Evergreens
EXTT0=
EXTT1=
EXTT2=
EXTT3=
EXTT4=
EXTT5=
EXTT6=
EXTT7=
EXTT8=
EXTT9=
EXTT10=
EXTT11=
EXTT12=
EXTT13=
EXTT14=
PLAYORDER=
